<svg width="308" height="308" viewBox="0 0 308 308" fill="none" xmlns="http://www.w3.org/2000/svg">
<rect x="2" y="2" width="304" height="304" rx="17" fill="#04000D" stroke="#04000D" stroke-width="4"/>
<g filter="url(#filter0_d_11_2)">
<mask id="path-2-outside-1_11_2" maskUnits="userSpaceOnUse" x="66" y="56" width="173" height="194" fill="black">
<rect fill="white" x="66" y="56" width="173" height="194"/>
<path d="M67.6562 129L84.8402 58.92H103.08L120.456 129H105.768L102.408 113.16H85.7042L82.3442 129H67.6562ZM88.1042 101.64H99.9123L96.5522 84.744C96.1042 82.312 95.6242 79.912 95.1123 77.544C94.6643 75.112 94.3123 73.224 94.0562 71.88C93.8002 73.224 93.4482 75.08 93.0002 77.448C92.6163 79.816 92.1683 82.216 91.6562 84.648L88.1042 101.64ZM154.019 129.96C149.347 129.96 145.283 129.096 141.827 127.368C138.371 125.576 135.683 123.112 133.763 119.976C131.907 116.776 130.979 113.064 130.979 108.84V96.36C130.979 92.136 131.907 88.456 133.763 85.32C135.683 82.12 138.371 79.656 141.827 77.928C145.283 76.136 149.347 75.24 154.019 75.24C158.755 75.24 162.819 76.136 166.211 77.928C169.667 79.656 172.323 82.12 174.179 85.32C176.099 88.456 177.059 92.136 177.059 96.36V108.84C177.059 113.064 176.099 116.776 174.179 119.976C172.323 123.112 169.667 125.576 166.211 127.368C162.819 129.096 158.755 129.96 154.019 129.96ZM154.019 117.48C156.835 117.48 158.979 116.744 160.451 115.272C161.923 113.736 162.659 111.592 162.659 108.84V96.36C162.659 93.544 161.923 91.4 160.451 89.928C158.979 88.456 156.835 87.72 154.019 87.72C151.267 87.72 149.123 88.456 147.587 89.928C146.115 91.4 145.379 93.544 145.379 96.36V108.84C145.379 111.592 146.115 113.736 147.587 115.272C149.123 116.744 151.267 117.48 154.019 117.48ZM214.365 129.96C209.693 129.96 205.597 129.096 202.077 127.368C198.557 125.576 195.805 123.112 193.821 119.976C191.901 116.776 190.941 113.064 190.941 108.84V79.08C190.941 74.792 191.901 71.08 193.821 67.944C195.805 64.808 198.557 62.376 202.077 60.648C205.597 58.856 209.693 57.96 214.365 57.96C219.101 57.96 223.197 58.856 226.653 60.648C230.173 62.376 232.893 64.808 234.813 67.944C236.797 71.08 237.789 74.792 237.789 79.08H223.389C223.389 76.264 222.589 74.12 220.989 72.648C219.453 71.176 217.245 70.44 214.365 70.44C211.485 70.44 209.245 71.176 207.645 72.648C206.109 74.12 205.341 76.264 205.341 79.08V108.84C205.341 111.592 206.109 113.736 207.645 115.272C209.245 116.744 211.485 117.48 214.365 117.48C217.245 117.48 219.453 116.744 220.989 115.272C222.589 113.736 223.389 111.592 223.389 108.84H237.789C237.789 113.064 236.797 116.776 234.813 119.976C232.893 123.112 230.173 125.576 226.653 127.368C223.197 129.096 219.101 129.96 214.365 129.96ZM101.958 249V235.464L124.23 213.96C126.854 211.4 128.806 209.032 130.086 206.856C131.43 204.68 132.102 202.312 132.102 199.752C132.102 196.936 131.334 194.76 129.798 193.224C128.326 191.688 126.278 190.92 123.654 190.92C120.774 190.92 118.502 191.784 116.838 193.512C115.238 195.176 114.438 197.512 114.438 200.52H100.038C100.038 195.912 100.998 191.944 102.918 188.616C104.902 185.224 107.686 182.6 111.27 180.744C114.854 178.888 119.078 177.96 123.942 177.96C128.486 177.96 132.422 178.824 135.75 180.552C139.142 182.216 141.766 184.552 143.622 187.56C145.542 190.568 146.502 194.12 146.502 198.216C146.502 202.76 145.382 207.112 143.142 211.272C140.902 215.432 137.318 219.784 132.39 224.328L119.718 236.04H147.27V249H101.958ZM191.2 249V236.136H160.48V216.072L186.784 178.92H203.104L173.92 220.104V223.656H191.2V208.68H205.6V249H191.2Z"/>
</mask>
<path d="M67.6562 129L84.8402 58.92H103.08L120.456 129H105.768L102.408 113.16H85.7042L82.3442 129H67.6562ZM88.1042 101.64H99.9123L96.5522 84.744C96.1042 82.312 95.6242 79.912 95.1123 77.544C94.6643 75.112 94.3123 73.224 94.0562 71.88C93.8002 73.224 93.4482 75.08 93.0002 77.448C92.6163 79.816 92.1683 82.216 91.6562 84.648L88.1042 101.64ZM154.019 129.96C149.347 129.96 145.283 129.096 141.827 127.368C138.371 125.576 135.683 123.112 133.763 119.976C131.907 116.776 130.979 113.064 130.979 108.84V96.36C130.979 92.136 131.907 88.456 133.763 85.32C135.683 82.12 138.371 79.656 141.827 77.928C145.283 76.136 149.347 75.24 154.019 75.24C158.755 75.24 162.819 76.136 166.211 77.928C169.667 79.656 172.323 82.12 174.179 85.32C176.099 88.456 177.059 92.136 177.059 96.36V108.84C177.059 113.064 176.099 116.776 174.179 119.976C172.323 123.112 169.667 125.576 166.211 127.368C162.819 129.096 158.755 129.96 154.019 129.96ZM154.019 117.48C156.835 117.48 158.979 116.744 160.451 115.272C161.923 113.736 162.659 111.592 162.659 108.84V96.36C162.659 93.544 161.923 91.4 160.451 89.928C158.979 88.456 156.835 87.72 154.019 87.72C151.267 87.72 149.123 88.456 147.587 89.928C146.115 91.4 145.379 93.544 145.379 96.36V108.84C145.379 111.592 146.115 113.736 147.587 115.272C149.123 116.744 151.267 117.48 154.019 117.48ZM214.365 129.96C209.693 129.96 205.597 129.096 202.077 127.368C198.557 125.576 195.805 123.112 193.821 119.976C191.901 116.776 190.941 113.064 190.941 108.84V79.08C190.941 74.792 191.901 71.08 193.821 67.944C195.805 64.808 198.557 62.376 202.077 60.648C205.597 58.856 209.693 57.96 214.365 57.96C219.101 57.96 223.197 58.856 226.653 60.648C230.173 62.376 232.893 64.808 234.813 67.944C236.797 71.08 237.789 74.792 237.789 79.08H223.389C223.389 76.264 222.589 74.12 220.989 72.648C219.453 71.176 217.245 70.44 214.365 70.44C211.485 70.44 209.245 71.176 207.645 72.648C206.109 74.12 205.341 76.264 205.341 79.08V108.84C205.341 111.592 206.109 113.736 207.645 115.272C209.245 116.744 211.485 117.48 214.365 117.48C217.245 117.48 219.453 116.744 220.989 115.272C222.589 113.736 223.389 111.592 223.389 108.84H237.789C237.789 113.064 236.797 116.776 234.813 119.976C232.893 123.112 230.173 125.576 226.653 127.368C223.197 129.096 219.101 129.96 214.365 129.96ZM101.958 249V235.464L124.23 213.96C126.854 211.4 128.806 209.032 130.086 206.856C131.43 204.68 132.102 202.312 132.102 199.752C132.102 196.936 131.334 194.76 129.798 193.224C128.326 191.688 126.278 190.92 123.654 190.92C120.774 190.92 118.502 191.784 116.838 193.512C115.238 195.176 114.438 197.512 114.438 200.52H100.038C100.038 195.912 100.998 191.944 102.918 188.616C104.902 185.224 107.686 182.6 111.27 180.744C114.854 178.888 119.078 177.96 123.942 177.96C128.486 177.96 132.422 178.824 135.75 180.552C139.142 182.216 141.766 184.552 143.622 187.56C145.542 190.568 146.502 194.12 146.502 198.216C146.502 202.76 145.382 207.112 143.142 211.272C140.902 215.432 137.318 219.784 132.39 224.328L119.718 236.04H147.27V249H101.958ZM191.2 249V236.136H160.48V216.072L186.784 178.92H203.104L173.92 220.104V223.656H191.2V208.68H205.6V249H191.2Z" fill="#9B64F9"/>
<path d="M67.6562 129L66.685 128.762L66.3814 130H67.6562V129ZM84.8402 58.92V57.92H84.0558L83.869 58.6818L84.8402 58.92ZM103.08 58.92L104.051 58.6793L103.863 57.92H103.08V58.92ZM120.456 129V130H121.734L121.427 128.759L120.456 129ZM105.768 129L104.79 129.208L104.958 130H105.768V129ZM102.408 113.16L103.386 112.952L103.218 112.16H102.408V113.16ZM85.7042 113.16V112.16H84.8941L84.726 112.952L85.7042 113.16ZM82.3442 129V130H83.1544L83.3225 129.208L82.3442 129ZM88.1042 101.64L87.1254 101.435L86.8736 102.64H88.1042V101.64ZM99.9123 101.64V102.64H101.131L100.893 101.445L99.9123 101.64ZM96.5522 84.744L95.5687 84.9252L95.5715 84.939L96.5522 84.744ZM95.1123 77.544L94.1288 77.7252L94.1316 77.7403L94.1348 77.7553L95.1123 77.544ZM94.0562 71.88L95.0386 71.6929H93.0739L94.0562 71.88ZM93.0002 77.448L92.0177 77.2621L92.0152 77.275L92.0131 77.2879L93.0002 77.448ZM91.6562 84.648L90.6777 84.442L90.6774 84.4434L91.6562 84.648ZM68.6275 129.238L85.8115 59.1581L83.869 58.6818L66.685 128.762L68.6275 129.238ZM84.8402 59.92H103.08V57.92H84.8402V59.92ZM102.11 59.1607L119.486 129.241L121.427 128.759L104.051 58.6793L102.11 59.1607ZM120.456 128H105.768V130H120.456V128ZM106.746 128.792L103.386 112.952L101.43 113.368L104.79 129.208L106.746 128.792ZM102.408 112.16H85.7042V114.16H102.408V112.16ZM84.726 112.952L81.366 128.792L83.3225 129.208L86.6825 113.368L84.726 112.952ZM82.3442 128H67.6562V130H82.3442V128ZM88.1042 102.64H99.9123V100.64H88.1042V102.64ZM100.893 101.445L97.533 84.549L95.5715 84.939L98.9315 101.835L100.893 101.445ZM97.5357 84.5628C97.0859 82.121 96.6039 79.7109 96.0897 77.3327L94.1348 77.7553C94.6446 80.1131 95.1226 82.503 95.5688 84.9252L97.5357 84.5628ZM96.0957 77.3628C95.6476 74.9302 95.2952 73.0398 95.0386 71.6929L93.0739 72.0671C93.3293 73.4082 93.6809 75.2938 94.1288 77.7252L96.0957 77.3628ZM93.0739 71.6929C92.8178 73.0375 92.4657 74.894 92.0177 77.2621L93.9828 77.6339C94.4308 75.266 94.7827 73.4105 95.0386 72.0671L93.0739 71.6929ZM92.0131 77.2879C91.6317 79.64 91.1866 82.0247 90.6777 84.442L92.6348 84.854C93.1499 82.4073 93.6008 79.992 93.9874 77.6081L92.0131 77.2879ZM90.6774 84.4434L87.1254 101.435L89.0831 101.845L92.6351 84.8526L90.6774 84.4434ZM141.827 127.368L141.366 128.256L141.373 128.259L141.38 128.262L141.827 127.368ZM133.763 119.976L132.898 120.478L132.904 120.488L132.91 120.498L133.763 119.976ZM133.763 85.32L132.905 84.8055L132.902 84.8107L133.763 85.32ZM141.827 77.928L142.274 78.8224L142.281 78.8191L142.287 78.8158L141.827 77.928ZM166.211 77.928L165.744 78.8122L165.754 78.8174L165.764 78.8224L166.211 77.928ZM174.179 85.32L173.314 85.8217L173.32 85.832L173.326 85.8422L174.179 85.32ZM174.179 119.976L173.321 119.461L173.318 119.467L174.179 119.976ZM166.211 127.368L166.665 128.259L166.671 128.256L166.211 127.368ZM160.451 115.272L161.158 115.979L161.165 115.972L161.173 115.964L160.451 115.272ZM147.587 89.928L146.895 89.206L146.887 89.2134L146.88 89.2209L147.587 89.928ZM147.587 115.272L146.865 115.964L146.879 115.979L146.895 115.994L147.587 115.272ZM154.019 128.96C149.47 128.96 145.565 128.119 142.274 126.474L141.38 128.262C145 130.073 149.224 130.96 154.019 130.96V128.96ZM142.287 126.48C138.983 124.767 136.435 122.425 134.616 119.454L132.91 120.498C134.931 123.799 137.759 126.385 141.366 128.256L142.287 126.48ZM134.628 119.474C132.872 116.447 131.979 112.913 131.979 108.84H129.979C129.979 113.215 130.941 117.105 132.898 120.478L134.628 119.474ZM131.979 108.84V96.36H129.979V108.84H131.979ZM131.979 96.36C131.979 92.2863 132.872 88.788 134.623 85.8293L132.902 84.8107C130.941 88.124 129.979 91.9857 129.979 96.36H131.979ZM134.62 85.8345C136.439 82.8036 138.982 80.4685 142.274 78.8224L141.38 77.0336C137.76 78.8435 134.927 81.4364 132.905 84.8055L134.62 85.8345ZM142.287 78.8158C145.575 77.1109 149.475 76.24 154.019 76.24V74.24C149.218 74.24 144.99 75.1611 141.366 77.0402L142.287 78.8158ZM154.019 76.24C158.63 76.24 162.526 77.1121 165.744 78.8122L166.678 77.0438C163.112 75.1599 158.88 74.24 154.019 74.24V76.24ZM165.764 78.8224C169.053 80.4672 171.56 82.7984 173.314 85.8217L175.044 84.8183C173.085 81.4416 170.28 78.8448 166.658 77.0336L165.764 78.8224ZM173.326 85.8422C175.136 88.7987 176.059 92.2923 176.059 96.36H178.059C178.059 91.9797 177.061 88.1133 175.032 84.7978L173.326 85.8422ZM176.059 96.36V108.84H178.059V96.36H176.059ZM176.059 108.84C176.059 112.907 175.136 116.437 173.321 119.462L175.036 120.49C177.061 117.115 178.059 113.221 178.059 108.84H176.059ZM173.318 119.467C171.564 122.43 169.052 124.768 165.75 126.48L166.671 128.256C170.281 126.384 173.081 123.794 175.039 120.485L173.318 119.467ZM165.757 126.477C162.536 128.118 158.635 128.96 154.019 128.96V130.96C158.875 130.96 163.102 130.074 166.665 128.259L165.757 126.477ZM154.019 118.48C157.004 118.48 159.44 117.697 161.158 115.979L159.744 114.565C158.518 115.791 156.666 116.48 154.019 116.48V118.48ZM161.173 115.964C162.871 114.192 163.659 111.771 163.659 108.84H161.659C161.659 111.413 160.975 113.28 159.729 114.58L161.173 115.964ZM163.659 108.84V96.36H161.659V108.84H163.659ZM163.659 96.36C163.659 93.3749 162.876 90.9389 161.158 89.2209L159.744 90.6351C160.97 91.8611 161.659 93.7131 161.659 96.36H163.659ZM161.158 89.2209C159.44 87.5028 157.004 86.72 154.019 86.72V88.72C156.666 88.72 158.518 89.4092 159.744 90.6351L161.158 89.2209ZM154.019 86.72C151.087 86.72 148.667 87.5078 146.895 89.206L148.279 90.65C149.579 89.4042 151.446 88.72 154.019 88.72V86.72ZM146.88 89.2209C145.162 90.9389 144.379 93.3749 144.379 96.36H146.379C146.379 93.7131 147.068 91.8611 148.294 90.6351L146.88 89.2209ZM144.379 96.36V108.84H146.379V96.36H144.379ZM144.379 108.84C144.379 111.771 145.167 114.192 146.865 115.964L148.309 114.58C147.063 113.28 146.379 111.413 146.379 108.84H144.379ZM146.895 115.994C148.667 117.692 151.087 118.48 154.019 118.48V116.48C151.446 116.48 149.579 115.796 148.279 114.55L146.895 115.994ZM202.077 127.368L201.624 128.259L201.63 128.262L201.637 128.266L202.077 127.368ZM193.821 119.976L192.964 120.49L192.97 120.501L192.976 120.511L193.821 119.976ZM193.821 67.944L192.976 67.4094L192.972 67.4156L192.968 67.4218L193.821 67.944ZM202.077 60.648L202.518 61.5457L202.524 61.5425L202.531 61.5392L202.077 60.648ZM226.653 60.648L226.193 61.5358L226.203 61.5408L226.213 61.5457L226.653 60.648ZM234.813 67.944L233.96 68.4662L233.964 68.4724L233.968 68.4786L234.813 67.944ZM237.789 79.08V80.08H238.789V79.08H237.789ZM223.389 79.08H222.389V80.08H223.389V79.08ZM220.989 72.648L220.297 73.37L220.305 73.377L220.312 73.3839L220.989 72.648ZM207.645 72.648L206.968 71.9121L206.961 71.919L206.953 71.926L207.645 72.648ZM207.645 115.272L206.938 115.979L206.953 115.994L206.968 116.008L207.645 115.272ZM220.989 115.272L221.681 115.994L221.682 115.993L220.989 115.272ZM223.389 108.84V107.84H222.389V108.84H223.389ZM237.789 108.84H238.789V107.84H237.789V108.84ZM234.813 119.976L233.963 119.449L233.96 119.454L234.813 119.976ZM226.653 127.368L227.1 128.262L227.107 128.259L226.653 127.368ZM214.365 128.96C209.817 128.96 205.877 128.119 202.518 126.47L201.637 128.266C205.318 130.073 209.569 130.96 214.365 130.96V128.96ZM202.531 126.477C199.16 124.761 196.548 122.416 194.666 119.441L192.976 120.511C195.062 123.808 197.954 126.391 201.624 128.259L202.531 126.477ZM194.679 119.462C192.864 116.437 191.941 112.907 191.941 108.84H189.941C189.941 113.221 190.939 117.115 192.964 120.49L194.679 119.462ZM191.941 108.84V79.08H189.941V108.84H191.941ZM191.941 79.08C191.941 74.9452 192.865 71.4204 194.674 68.4662L192.968 67.4218C190.937 70.7396 189.941 74.6388 189.941 79.08H191.941ZM194.666 68.4786C196.546 65.5076 199.154 63.1971 202.518 61.5457L201.637 59.7503C197.961 61.5549 195.065 64.1083 192.976 67.4094L194.666 68.4786ZM202.531 61.5392C205.887 59.8307 209.822 58.96 214.365 58.96V56.96C209.564 56.96 205.308 57.8813 201.624 59.7568L202.531 61.5392ZM214.365 58.96C218.975 58.96 222.907 59.8318 226.193 61.5358L227.114 59.7602C223.488 57.8802 219.227 56.96 214.365 56.96V58.96ZM226.213 61.5457C229.574 63.1959 232.146 65.5027 233.96 68.4662L235.666 67.4218C233.64 64.1133 230.772 61.5561 227.094 59.7503L226.213 61.5457ZM233.968 68.4786C235.836 71.431 236.789 74.9512 236.789 79.08H238.789C238.789 74.6328 237.758 70.729 235.658 67.4094L233.968 68.4786ZM237.789 78.08H223.389V80.08H237.789V78.08ZM224.389 79.08C224.389 76.0717 223.529 73.6254 221.666 71.9121L220.312 73.3839C221.65 74.6146 222.389 76.4563 222.389 79.08H224.389ZM221.681 71.926C219.901 70.2202 217.41 69.44 214.365 69.44V71.44C217.081 71.44 219.005 72.1318 220.297 73.37L221.681 71.926ZM214.365 69.44C211.318 69.44 208.806 70.2212 206.968 71.9121L208.322 73.3839C209.684 72.1308 211.653 71.44 214.365 71.44V69.44ZM206.953 71.926C205.163 73.642 204.341 76.0834 204.341 79.08H206.341C206.341 76.4446 207.056 74.598 208.337 73.37L206.953 71.926ZM204.341 79.08V108.84H206.341V79.08H204.341ZM204.341 108.84C204.341 111.783 205.168 114.209 206.938 115.979L208.352 114.565C207.051 113.263 206.341 111.401 206.341 108.84H204.341ZM206.968 116.008C208.806 117.699 211.318 118.48 214.365 118.48V116.48C211.653 116.48 209.684 115.789 208.322 114.536L206.968 116.008ZM214.365 118.48C217.41 118.48 219.901 117.7 221.681 115.994L220.297 114.55C219.005 115.788 217.081 116.48 214.365 116.48V118.48ZM221.682 115.993C223.523 114.225 224.389 111.794 224.389 108.84H222.389C222.389 111.39 221.655 113.247 220.297 114.551L221.682 115.993ZM223.389 109.84H237.789V107.84H223.389V109.84ZM236.789 108.84C236.789 112.901 235.838 116.426 233.963 119.449L235.663 120.503C237.757 117.126 238.789 113.227 238.789 108.84H236.789ZM233.96 119.454C232.144 122.421 229.568 124.762 226.2 126.477L227.107 128.259C230.779 126.39 233.642 123.803 235.666 120.498L233.96 119.454ZM226.206 126.474C222.917 128.118 218.98 128.96 214.365 128.96V130.96C219.222 130.96 223.478 130.074 227.1 128.262L226.206 126.474ZM101.958 249H100.958V250H101.958V249ZM101.958 235.464L101.263 234.745L100.958 235.039V235.464H101.958ZM124.23 213.96L124.924 214.679L124.928 214.676L124.23 213.96ZM130.086 206.856L129.235 206.331L129.229 206.34L129.224 206.349L130.086 206.856ZM129.798 193.224L129.076 193.916L129.083 193.924L129.09 193.931L129.798 193.224ZM116.838 193.512L116.117 192.818L116.117 192.819L116.838 193.512ZM114.438 200.52V201.52H115.438V200.52H114.438ZM100.038 200.52H99.0375V201.52H100.038V200.52ZM102.918 188.616L102.054 188.111L102.051 188.116L102.918 188.616ZM111.27 180.744L111.729 181.632L111.729 181.632L111.27 180.744ZM135.75 180.552L135.289 181.439L135.299 181.445L135.309 181.45L135.75 180.552ZM143.622 187.56L142.77 188.085L142.774 188.092L142.779 188.098L143.622 187.56ZM143.142 211.272L142.261 210.798L142.261 210.798L143.142 211.272ZM132.39 224.328L131.712 223.593L131.711 223.594L132.39 224.328ZM119.718 236.04L119.039 235.306L117.162 237.04H119.718V236.04ZM147.27 236.04H148.27V235.04H147.27V236.04ZM147.27 249V250H148.27V249H147.27ZM102.958 249V235.464H100.958V249H102.958ZM102.652 236.183L124.924 214.679L123.535 213.241L101.263 234.745L102.652 236.183ZM124.928 214.676C127.589 212.079 129.607 209.642 130.947 207.363L129.224 206.349C128.004 208.422 126.118 210.721 123.531 213.244L124.928 214.676ZM130.936 207.381C132.378 205.047 133.102 202.497 133.102 199.752H131.102C131.102 202.127 130.481 204.313 129.235 206.331L130.936 207.381ZM133.102 199.752C133.102 196.753 132.279 194.291 130.505 192.517L129.09 193.931C130.388 195.229 131.102 197.119 131.102 199.752H133.102ZM130.519 192.532C128.817 190.755 126.482 189.92 123.654 189.92V191.92C126.073 191.92 127.834 192.621 129.076 193.916L130.519 192.532ZM123.654 189.92C120.56 189.92 118.007 190.856 116.117 192.818L117.558 194.206C118.996 192.712 120.987 191.92 123.654 191.92V189.92ZM116.117 192.819C114.288 194.72 113.438 197.335 113.438 200.52H115.438C115.438 197.689 116.187 195.632 117.558 194.205L116.117 192.819ZM114.438 199.52H100.038V201.52H114.438V199.52ZM101.038 200.52C101.038 196.052 101.967 192.264 103.784 189.116L102.051 188.116C100.028 191.624 99.0375 195.772 99.0375 200.52H101.038ZM103.781 189.121C105.666 185.897 108.309 183.403 111.729 181.632L110.81 179.856C107.062 181.797 104.137 184.551 102.054 188.111L103.781 189.121ZM111.729 181.632C115.145 179.863 119.205 178.96 123.942 178.96V176.96C118.95 176.96 114.562 177.913 110.81 179.856L111.729 181.632ZM123.942 178.96C128.359 178.96 132.13 179.799 135.289 181.439L136.21 179.664C132.713 177.849 128.612 176.96 123.942 176.96V178.96ZM135.309 181.45C138.544 183.037 141.02 185.249 142.77 188.085L144.473 187.035C142.511 183.855 139.739 181.395 136.19 179.654L135.309 181.45ZM142.779 188.098C144.582 190.923 145.502 194.282 145.502 198.216H147.502C147.502 193.958 146.502 190.213 144.464 187.022L142.779 188.098ZM145.502 198.216C145.502 202.588 144.426 206.778 142.261 210.798L144.022 211.746C146.337 207.446 147.502 202.932 147.502 198.216H145.502ZM142.261 210.798C140.091 214.829 136.589 219.095 131.712 223.593L133.067 225.063C138.046 220.473 141.712 216.035 144.022 211.746L142.261 210.798ZM131.711 223.594L119.039 235.306L120.396 236.774L133.068 225.062L131.711 223.594ZM119.718 237.04H147.27V235.04H119.718V237.04ZM146.27 236.04V249H148.27V236.04H146.27ZM147.27 248H101.958V250H147.27V248ZM191.2 249H190.2V250H191.2V249ZM191.2 236.136H192.2V235.136H191.2V236.136ZM160.48 236.136H159.48V237.136H160.48V236.136ZM160.48 216.072L159.664 215.494L159.48 215.754V216.072H160.48ZM186.784 178.92V177.92H186.267L185.968 178.342L186.784 178.92ZM203.104 178.92L203.92 179.498L205.038 177.92H203.104V178.92ZM173.92 220.104L173.104 219.526L172.92 219.786V220.104H173.92ZM173.92 223.656H172.92V224.656H173.92V223.656ZM191.2 223.656V224.656H192.2V223.656H191.2ZM191.2 208.68V207.68H190.2V208.68H191.2ZM205.6 208.68H206.6V207.68H205.6V208.68ZM205.6 249V250H206.6V249H205.6ZM192.2 249V236.136H190.2V249H192.2ZM191.2 235.136H160.48V237.136H191.2V235.136ZM161.48 236.136V216.072H159.48V236.136H161.48ZM161.296 216.65L187.6 179.498L185.968 178.342L159.664 215.494L161.296 216.65ZM186.784 179.92H203.104V177.92H186.784V179.92ZM202.288 178.342L173.104 219.526L174.736 220.682L203.92 179.498L202.288 178.342ZM172.92 220.104V223.656H174.92V220.104H172.92ZM173.92 224.656H191.2V222.656H173.92V224.656ZM192.2 223.656V208.68H190.2V223.656H192.2ZM191.2 209.68H205.6V207.68H191.2V209.68ZM204.6 208.68V249H206.6V208.68H204.6ZM205.6 248H191.2V250H205.6V248Z" fill="#5807BB" mask="url(#path-2-outside-1_11_2)"/>
</g>
<path d="M50.0838 248.908L49.6821 248.211L50.4854 248.16L55.4854 247.842L56.3828 247.785L55.9576 248.578L53.4576 253.236L53.0325 254.029L52.5838 253.25L50.0838 248.908ZM62.5346 247.734L62.6285 247.389L62.9854 247.366L77.4959 246.445C81.0798 246.217 83.8001 243.126 83.5707 239.543L83.3461 236.032L83.3199 235.622L83.7163 235.517C88.1991 234.323 91.5642 230.737 93.6382 226.286C95.7118 221.836 96.4593 216.588 95.7553 212.197C95.7492 212.159 95.7389 212.126 95.7262 212.098C95.0531 210.643 93.6787 210.137 92.4616 210.362C91.2425 210.587 90.2297 211.529 90.2297 213C90.2297 217.992 89.9845 221.21 89.0258 223.601C88.0499 226.036 86.3585 227.563 83.6496 229.246L82.94 229.687L82.8866 228.854L80.8875 197.617C80.5497 192.339 74.3857 189.653 70.2893 192.998L52.5125 207.516C51.3432 208.471 49.6933 208.568 48.4196 207.758L28.8651 195.314C24.3799 192.46 18.5516 195.904 18.8885 201.21L20.3845 224.772L20.4183 225.304H19.8855C13.6006 225.304 8.96122 230.004 7.23129 236.285C5.51029 242.533 6.71504 250.239 12.035 256.093C13.8225 256.949 15.3851 256.46 16.1423 255.45C16.9017 254.437 16.9915 252.701 15.3535 250.829L15.3393 250.813L15.3266 250.796C12.4774 246.91 11.9612 242.076 13.0136 238.259C14.0586 234.47 16.7313 231.493 20.3884 231.726L20.8278 231.754L20.8557 232.193L21.5725 243.482C21.7999 247.065 24.8886 249.785 28.4713 249.557L42.4854 248.668L42.8011 248.648L42.9544 248.924L48.9544 259.758L49.1399 260.093L48.8651 260.359C40.8394 268.141 35.3657 271.365 27.6517 272.239C25.3338 272.501 23.6715 274.64 24.2011 276.825L26.3159 285.548C26.6414 286.891 27.9485 287.755 29.3115 287.527C30.7574 287.286 31.7291 285.912 31.4744 284.469L30.5246 279.087L30.4479 278.652L30.87 278.522C34.118 277.523 36.825 276.66 39.9639 274.937C43.1056 273.212 46.6987 270.614 51.6826 266.128L52.0565 265.792L52.3908 266.168C53.4337 267.341 54.7403 269.516 56.1108 271.992C56.9879 273.577 57.9058 275.313 58.8105 277.024C59.3254 277.998 59.8361 278.963 60.3326 279.889C61.7109 282.457 62.9758 284.706 63.9511 286.032C64.1933 286.361 64.4097 286.622 64.5984 286.813C64.7608 286.978 64.8815 287.068 64.9609 287.112C64.9801 287.069 65.005 286.999 65.0289 286.892L65.046 286.815L65.0858 286.747C66.7863 283.848 68.1701 281.787 69.9113 280.08C71.4914 278.53 73.3456 277.292 75.9545 275.969L75.0776 275.468C74.1714 274.95 73.0387 275.049 72.2368 275.718L67.8371 279.384L67.3775 279.767L67.0822 279.247L56.5822 260.747L56.4328 260.484L56.5968 260.229C60.0972 254.798 61.3472 252.096 62.5346 247.734ZM79.9015 217.943L81.1321 237.018C81.3622 240.584 78.6697 243.667 75.1046 243.92L30.6772 247.065C27.0377 247.323 23.8991 244.535 23.7255 240.891L22.7988 221.429C22.6298 217.881 25.3406 214.854 28.886 214.632L73.0095 211.874C76.5873 211.651 79.6707 214.366 79.9015 217.943Z" fill="#9B64F9" stroke="#9B64F9"/>
<path fill-rule="evenodd" clip-rule="evenodd" d="M66 238C60.4772 238 56 233.523 56 228C56 222.477 60.4772 218 66 218C71.5228 218 76 222.477 76 228C76 233.523 71.5228 238 66 238ZM66 234C62.6863 234 60 231.314 60 228C60 224.686 62.6863 222 66 222C69.3137 222 72 224.686 72 228C72 231.314 69.3137 234 66 234Z" fill="white"/>
<path fill-rule="evenodd" clip-rule="evenodd" d="M40 240C34.4772 240 30 235.523 30 230C30 224.477 34.4772 220 40 220C45.5228 220 50 224.477 50 230C50 235.523 45.5228 240 40 240ZM40 236C36.6863 236 34 233.314 34 230C34 226.686 36.6863 224 40 224C43.3137 224 46 226.686 46 230C46 233.314 43.3137 236 40 236Z" fill="white"/>
<path d="M49.387 238.015C52.4496 239.465 54.5347 239.374 57.2631 237.711C57.9765 237.276 58.9358 237.627 59.1244 238.441C59.2332 238.911 59.0412 239.403 58.6321 239.658C55.0034 241.924 52.4727 241.951 48.2771 240.206C47.7553 239.989 47.469 239.429 47.5807 238.875C47.7431 238.07 48.6444 237.663 49.387 238.015Z" fill="white"/>
<defs>
<filter id="filter0_d_11_2" x="-60.3438" y="-70.04" width="426.133" height="447.04" filterUnits="userSpaceOnUse" color-interpolation-filters="sRGB">
<feFlood flood-opacity="0" result="BackgroundImageFix"/>
<feColorMatrix in="SourceAlpha" type="matrix" values="0 0 0 0 0 0 0 0 0 0 0 0 0 0 0 0 0 0 127 0" result="hardAlpha"/>
<feOffset/>
<feGaussianBlur stdDeviation="64"/>
<feComposite in2="hardAlpha" operator="out"/>
<feColorMatrix type="matrix" values="0 0 0 0 0.762222 0 0 0 0 0.392157 0 0 0 0 0.976471 0 0 0 1 0"/>
<feBlend mode="normal" in2="BackgroundImageFix" result="effect1_dropShadow_11_2"/>
<feBlend mode="normal" in="SourceGraphic" in2="effect1_dropShadow_11_2" result="shape"/>
</filter>
</defs>
</svg>
